<?xml version="1.0" standalone="no"?><!DOCTYPE svg PUBLIC "-//W3C//DTD SVG 1.1//EN" "http://www.w3.org/Graphics/SVG/1.1/DTD/svg11.dtd"><svg t="1748919289307" class="icon" viewBox="0 0 1024 1024" version="1.1" xmlns="http://www.w3.org/2000/svg" p-id="13588" xmlns:xlink="http://www.w3.org/1999/xlink" width="400" height="400"><path d="M896.34816 253.58336c-0.57856-4.95104-2.59072-9.58976-6.00064-13.83936 1.88928-5.09952 2.33984-10.14272 1.34144-15.02208-1.3824-6.71744-6.08768-15.87712-20.63872-21.41184-15.8976-6.05184-40.13056-6.05184-65.84832-0.14336 12.97408-28.34944 17.24928-55.68 11.1104-72.54528-3.61984-9.97376-10.04032-14.49472-14.75072-16.52736-0.33792-0.14336-0.68096-0.27136-0.9984-0.4096-4.3008-1.6384-9.00096-2.0736-13.98272-1.31072-3.2256-3.88096-7.02976-6.6816-11.33056-8.31488a218.72128 218.72128 0 0 0-1.00864-0.36864c-4.88448-1.6128-12.68224-2.48832-22.016 2.54464-15.79008 8.5248-30.76608 31.77984-39.90016 61.5936-15.3088-21.50912-33.39776-37.6064-49.3056-43.65824-14.5664-5.53984-24.1664-1.8176-29.66528 2.2784-3.98336 2.98496-6.99392 7.04512-8.98048 12.11904-5.36064 0.90624-9.94816 3.0464-13.68064 6.34368-3.85024 3.42016-8.48384 9.728-8.81152 20.33664-0.512 17.94048 12.14976 42.53696 33.38752 65.3568-31.04256 2.92864-56.85248 12.89728-68.3776 26.64448-6.8096 8.13568-7.53152 15.93344-6.93248 21.05344 0.57856 4.9408 2.60096 9.57952 6.00064 13.83424-1.88928 5.09952-2.33984 10.14272-1.34144 15.01696 1.37728 6.71744 6.08256 15.87712 20.63872 21.42208 9.03168 3.4304 20.74112 4.91008 33.88416 4.46976-12.0832 10.55232-27.60704 26.43968-43.32032 46.09024-33.26976 41.61536-55.30624 86.12352-64.96768 138.77248h-18.432c-15.488-88.6016-42.624-139.648-67.3024-170.72128 14.94528 6.20032 29.00992 9.22624 40.81664 9.22624 19.46624 0 29.17888-9.03168 33.90464-16.44032 3.31776-5.23264 5.07904-11.65312 5.1456-18.54464 5.82656-3.46112 10.38848-8.192 13.28128-13.72672 3.00032-5.76 5.65248-15.29856 1.25952-27.9552-7.45472-21.38112-33.39776-44.71808-68.61824-62.07488 35.24096-17.3568 61.18912-40.66304 68.61824-62.02368 4.38272-12.63616 1.7408-22.14912-1.25952-27.89888-2.90304-5.56032-7.36256-10.1376-13.28128-13.61408-0.05632-6.85568-1.78176-13.0048-5.1456-18.29376-4.63872-7.296-14.2848-15.97952-33.90464-15.97952-21.44768 0-49.98656 10.85952-77.64992 29.34784 2.5856-39.20896-4.61824-73.33376-19.4048-90.4448-8.75008-10.11712-18.30912-12.57472-24.79616-12.85632a29.98784 29.98784 0 0 0-1.3568-0.03072c-5.79584 0-11.53024 1.59232-17.06496 4.72576-5.54496-3.12832-11.264-4.72576-17.06496-4.72576-0.45568 0-0.90624 0.01024-1.36192 0.03072-6.48704 0.2816-16.04608 2.7392-24.79616 12.85632-14.78656 17.11104-21.98528 51.23072-19.4048 90.4448-27.66336-18.48832-56.192-29.34784-77.63968-29.34784-19.63008 0-29.27104 8.6784-33.91488 15.97952-3.36896 5.28896-5.0944 11.42784-5.15072 18.29376-5.91872 3.47648-10.368 8.0384-13.27104 13.60384-3.00032 5.76-5.6576 15.27296-1.26464 27.90912 7.42912 21.3504 33.37728 44.66176 68.61312 62.01856-35.24096 17.36704-61.18912 40.65792-68.61312 62.02368-4.38272 12.63616-1.73568 22.14912 1.26464 27.89888 2.90304 5.56544 7.36256 10.1376 13.27104 13.61408 0.05632 6.85056 1.78176 13.0048 5.15072 18.28864 4.63872 7.28576 14.2848 15.9744 33.91488 15.9744 21.44768 0 49.97632-10.84928 77.63968-29.34272-2.5856 39.20384 4.61824 73.32352 19.4048 90.43456 8.74496 10.12736 18.30912 12.57472 24.79616 12.86144 0.45056 0.02048 0.90624 0.0256 1.36192 0.0256 5.80608 0 11.53024-1.58208 17.06496-4.72064 5.53472 3.13856 11.25888 4.72064 17.06496 4.72064 0.45056 0 0.90624-0.00512 1.3568-0.0256 6.48704-0.28672 16.04608-2.73408 24.79616-12.86144 11.10528-12.8512 17.93024-35.30752 19.54304-62.28992 7.66464 7.84896 16.31744 19.2512 25.10848 33.59232 22.44608 36.58752 36.69504 81.24928 45.53728 130.048h-37.72416c-13.78816 0-31.32928 15.08864-38.30272 34.90816-46.5152 138.05056-64.2048 284.54912-42.60864 422.59968 3.24608 19.80928 23.16288 35.6096 43.30496 35.6096h246.54336c20.13696 0 40.05888-16.16896 43.29984-35.98848 21.61152-138.05056 3.93216-284.00128-42.60864-422.06208-6.9632-19.80928-24.49408-35.08224-38.29248-35.08224h-48.4608c9.05728-42.37312 27.95008-81.38752 56.51456-117.38112 14.52032-18.29888 28.98944-32.75264 40.01792-42.39872-4.33152 17.18784-4.75136 32.37376-0.76288 43.32032 3.61984 9.97376 10.03008 14.39744 14.75072 16.43008 0.3328 0.14336 0.67584 0.22528 1.00864 0.3584 4.29056 1.64352 9.00096 2.05312 13.97248 1.29024 3.22048 3.88608 7.01952 6.66624 11.33056 8.30464l0.9984 0.3584c4.8896 1.62304 12.68224 2.48832 22.02112-2.55488 15.75936-8.49408 30.69952-31.67232 39.8336-61.3632 15.39584 21.70368 33.46944 37.86752 49.21344 43.86816 14.4384 5.49376 24.1408 1.66912 29.73184-2.49856 3.94752-2.944 7.02976-7.13728 9.03168-12.22656 5.2992-0.9216 9.99936-3.11296 13.70112-6.4 3.86048-3.42016 8.50944-9.73312 8.81664-20.35712 0.52736-17.96096-12.13952-42.57792-33.37728-65.3824 31.03744-2.93376 56.84736-12.89728 68.3776-26.64448 6.84032-8.1152 7.552-15.9232 6.94784-21.03296zM270.16704 281.58464a209.44384 209.44384 0 0 1-17.67936 14.2848c-24.49408 17.7152-50.19648 28.72832-67.08224 28.72832-5.07904 0-7.53152-1.152-7.85408-1.66912-0.30208-0.47104-0.7936-2.69824 0.49152-7.296a15.5392 15.5392 0 0 0-1.50528-11.86304 15.48288 15.48288 0 0 0-9.5232-7.23456c-4.61824-1.19296-6.2976-2.73408-6.56384-3.21024-0.10752-0.22016-0.24064-1.29536 0.52736-3.50208 6.2976-18.11968 39.56224-38.56896 60.37504-47.88736a214.5792 214.5792 0 0 1 21.20192-8.1664c8.4224 2.31936 16.69632 4.0448 24.5504 5.13024-3.65056 1.98656-7.27552 4.0192-10.88 6.08768a435.51744 435.51744 0 0 0-22.35392 13.81376c-3.37408 2.2272-6.71232 4.51072-10.01472 6.84544-2.96448 2.11968-5.90848 4.28032-8.81664 6.48192-2.46784 1.87392-4.90496 3.79392-7.30624 5.75488-1.87904 1.51552-3.72224 3.072-5.53472 4.66944-3.05664 2.65728-4.75136 4.34688-4.81792 4.41856L185.4464 298.9056l16.30208-4.3776c0.09728-0.01536 2.41664-0.64 6.22592-1.95072a251.92448 251.92448 0 0 0 15.48288-5.93408c2.67776-1.14176 6.24128-2.6624 9.99424-4.39296a372.1216 372.1216 0 0 0 10.93632-5.24288 449.67936 449.67936 0 0 0 33.36192-18.52416 189.76768 189.76768 0 0 0-7.58272 23.10144z m-2.88256-110.38208a442.44992 442.44992 0 0 0-23.13216-12.45696 336.04096 336.04096 0 0 0-20.9664-9.6512 286.39232 286.39232 0 0 0-8.63744-3.46112c-2.2528-0.86016-4.52096-1.67936-6.80448-2.46272a94.87872 94.87872 0 0 0-6.24128-1.95072l-16.31232-4.37248 11.9552 11.93472c0.06656 0.0768 1.75104 1.7664 4.80256 4.41344 1.57184 1.37728 3.44064 2.94912 5.55008 4.67968 2.18624 1.792 4.64896 3.72224 7.31648 5.77024 2.33984 1.75104 5.45792 4.08064 8.8064 6.44608a380.0064 380.0064 0 0 0 10.01472 6.85568 439.38816 439.38816 0 0 0 32.68096 19.58912 194.23232 194.23232 0 0 0-23.75168 5.02272 212.85888 212.85888 0 0 1-21.20192-8.17152c-20.81792-9.3184-54.08256-29.75744-60.38016-47.88736-0.768-2.19648-0.62976-3.28704-0.52736-3.49184 0.26112-0.4864 1.94048-2.02752 6.56384-3.21536a15.47776 15.47776 0 0 0 9.5232-7.23456 15.52896 15.52896 0 0 0 1.50528-11.85792c-1.28512-4.608-0.7936-6.82496-0.50176-7.296 0.39424-0.58368 3.0976-1.66912 7.86432-1.66912 16.88576 0 42.58816 11.00288 67.08224 28.7232a214.95808 214.95808 0 0 1 17.67936 14.27456c2.20672 8.448 4.85376 16.49152 7.86944 23.85408-3.5584-2.17088-7.14752-4.3008-10.75712-6.38464z m223.07328 118.62016c0.77312 2.20672 0.63488 3.28192 0.52736 3.48672-0.26112 0.49152-1.93024 2.02752-6.56384 3.21536a15.52384 15.52384 0 0 0-9.5232 7.23456 15.55456 15.55456 0 0 0-1.50528 11.86816c1.30048 4.6848 0.78336 7.02464 0.49152 7.46496-0.47104 0.76288-3.54304 1.85856-7.84384 1.85856-16.74752 0-42.4448-11.07968-67.09248-28.90752a211.47648 211.47648 0 0 1-17.67936-14.37184 194.54976 194.54976 0 0 0-7.58784-23.1936c3.3024 2.01216 6.71232 4.03456 10.24 6.07744a438.56896 438.56896 0 0 0 23.13216 12.45184 366.86336 366.86336 0 0 0 20.96128 9.64608 265.07264 265.07264 0 0 0 15.44192 5.91872c3.54816 1.20832 5.79072 1.82784 6.21056 1.9456l1.19808-4.35712 3.2-3.19488c-0.06656-0.06656-1.76128-1.7664-4.80256-4.41344a211.2 211.2 0 0 0-5.5552-4.67968c-2.4064-1.96608-4.84864-3.88608-7.32672-5.77024a349.6448 349.6448 0 0 0-18.82112-13.30176 445.40928 445.40928 0 0 0-22.36416-13.81376 512.3072 512.3072 0 0 0-10.86464-6.0928 191.48288 191.48288 0 0 0 24.54016-5.12512c7.20896 2.33984 14.2848 5.06368 21.20192 8.1664 20.82816 9.3184 54.08768 29.76768 60.38528 47.88736zM381.17376 153.73824a213.04832 213.04832 0 0 1 17.67936-14.27456c24.49408-17.72032 50.19136-28.7232 67.09248-28.7232 5.3248 0 7.49568 1.23392 7.85408 1.66912 0.29184 0.47104 0.78336 2.688-0.50176 7.296a15.52896 15.52896 0 0 0 1.50528 11.85792 15.488 15.488 0 0 0 9.5232 7.22944c4.61824 1.19808 6.2976 2.72896 6.56384 3.21536 0 0.01024 0.38912 0.86528-0.52736 3.49184-6.2976 18.12992-39.55712 38.56896-60.37504 47.88736a214.73792 214.73792 0 0 1-21.20704 8.17664 192.08704 192.08704 0 0 0-23.75168-5.02272 496.4096 496.4096 0 0 0 10.3168-5.79072 443.8016 443.8016 0 0 0 22.36416-13.80352 392.4736 392.4736 0 0 0 10.01472-6.84544 364.72832 364.72832 0 0 0 8.82688-6.4768 272.7424 272.7424 0 0 0 12.84096-10.42432c1.63328-1.41824 3.23072-2.88256 4.79232-4.38272l-2.96448-3.02592-1.37728-4.5824c-0.09728 0.03072-2.41664 0.65024-6.22592 1.96096-1.97632 0.67072-4.28032 1.49504-6.83008 2.4576-2.90304 1.11104-5.79072 2.26304-8.6528 3.47136-3.3536 1.408-6.6816 2.87232-9.98912 4.39296-3.67104 1.6896-7.3216 3.43552-10.93632 5.24288a443.21792 443.21792 0 0 0-23.15264 12.4672c-3.6096 2.08896-7.1936 4.21888-10.752 6.39488a188.57472 188.57472 0 0 0 7.86944-23.8592zM305.9456 38.95296c1.81248-2.09408 2.8672-1.64352 2.8672-1.64352l0.03584-0.48128c0.68096 0.23552 3.12832 1.2544 5.81632 3.99872a15.232 15.232 0 0 0 10.88512 4.63872 15.6672 15.6672 0 0 0 11.08992-4.63872c3.1488-3.21024 5.35552-4.0704 6.0928-4.0704 0.00512 0 0.96256 0.10752 2.76992 2.19648 12.53888 14.52032 13.63456 53.55008 11.29472 76.23168a212.97664 212.97664 0 0 1-3.52256 22.4512 190.39744 190.39744 0 0 0-16.22528 18.0992c0.09728-3.8656 0.1536-7.8336 0.1536-11.86816a428.06272 428.06272 0 0 0-0.78336-26.2656 354.84672 354.84672 0 0 0-2.10944-22.97856 238.51008 238.51008 0 0 0-2.60096-16.32768 103.20384 103.20384 0 0 0-1.42336-6.38464l-4.36736-16.31744-4.37248 16.31744c-0.01536 0.09728-0.64 2.40128-1.41312 6.36416-0.47616 2.37056-0.90112 4.75648-1.28 7.14752-0.49152 3.06688-0.93184 6.144-1.31584 9.22624a351.5392 351.5392 0 0 0-1.19808 10.8544c-0.36352 3.91168-0.6656 7.9872-0.9216 12.09344a449.14176 449.14176 0 0 0-0.6144 38.76864 193.41312 193.41312 0 0 0-16.72704-18.73408 213.71392 213.71392 0 0 1-3.46624-22.4512c-2.35008-22.67136-1.22368-61.696 11.33568-76.22656z m39.5776 357.41696c-1.52576 1.76128-2.52928 2.18624-2.7904 2.21184-0.70656 0-2.88256-0.86016-6.03648-4.08064a15.53408 15.53408 0 0 0-11.02848-4.62848c-4.1216 0-8.14592 2.28352-11.02848 5.2224-3.1488 3.21536-5.31968 4.66944-6.06208 4.66944h-0.01024c-0.22528 0-1.22368-1.02912-2.75456-2.7904-12.53888-14.52032-13.61408-53.84192-11.27424-76.52864 0.77312-7.58784 1.95072-15.13472 3.52256-22.59968a192.44544 192.44544 0 0 0 16.72704-18.81088 447.95904 447.95904 0 0 0 0.6144 38.71744c0.25088 4.11136 0.55296 8.17152 0.9216 12.09344 0.38912 4.14208 0.8448 7.96672 1.19808 10.87488 0.42496 3.31776 0.86528 6.41024 1.31584 9.20064 0.384 2.38592 0.80896 4.7616 1.28 7.12704 0.77312 3.968 1.39264 6.29248 1.41312 6.38464l4.37248 16.32768 4.36736-16.32768c0.03072-0.09728 0.64-2.41664 1.42336-6.3744 0.4096-2.05824 0.82944-4.44928 1.27488-7.1424 0.45056-2.78528 0.896-5.88288 1.3312-9.23136a359.05536 359.05536 0 0 0 2.10432-22.94784c0.512-8.14592 0.77312-16.98304 0.78336-26.27584 0-4.03456-0.04608-8.00768-0.14848-11.86304a192.256 192.256 0 0 0 16.22528 18.09408 208.0768 208.0768 0 0 1 3.52256 22.45632c2.3552 22.6816 1.28 61.70624-11.264 76.22144z m280.84736-230.41024c0.0512-1.84832 0.45056-2.61632 0.59904-2.73408 0.32256-0.29184 2.00192-0.95232 5.77024-0.53248a12.36992 12.36992 0 0 0 9.10848-2.66752 12.3392 12.3392 0 0 0 4.44928-8.38144c0.34304-3.77344 1.34144-5.28384 1.69984-5.54496 0.45056-0.32256 2.76992-0.36864 6.29248 0.96768 12.5184 4.77184 28.48256 20.18304 41.6512 40.23808a166.9376 166.9376 0 0 1 9.06752 15.57504 153.81504 153.81504 0 0 0-0.88064 19.90144 427.904 427.904 0 0 0-6.1696-7.77728 341.01248 341.01248 0 0 0-13.64992-15.75424 268.672 268.672 0 0 0-12.82048-13.0816 228.21888 228.21888 0 0 0-5.43232-4.99712 152.71424 152.71424 0 0 0-4.36224-3.74784 72.71936 72.71936 0 0 0-4.08064-3.20512l-10.85952-7.84384 5.4784 12.22144c0.04096 0.0768 0.82944 1.81248 2.31936 4.62848 0.77824 1.46432 1.72032 3.15904 2.80064 5.03296 1.13152 1.9456 2.41152 4.07552 3.80928 6.34368 1.23904 1.96096 2.89792 4.57216 4.7104 7.2704 1.792 2.66752 3.63008 5.29408 5.48864 7.90016a351.50848 351.50848 0 0 0 18.72896 23.7568 154.71616 154.71616 0 0 0-19.0464-2.97984 168.15616 168.15616 0 0 1-13.42976-12.04224c-12.78464-12.77952-31.67744-37.32992-31.24224-52.54656z m-32.4096 139.71456c-3.76832-1.42848-5.248-2.9696-5.3504-3.456-0.09216-0.42496 0.1792-2.21696 2.42176-5.26336a12.3648 12.3648 0 0 0 2.24256-9.23136 12.27776 12.27776 0 0 0-5.0176-8.0384c-3.09248-2.19648-3.90656-3.80928-3.95776-4.24448-0.02048-0.1792 0.18944-1.01888 1.3824-2.44224 9.7792-11.66336 40.2176-17.44384 58.28096-18.47808a170.76736 170.76736 0 0 1 18.02752-0.0768 154.82368 154.82368 0 0 0 16.75776 10.73664 356.0192 356.0192 0 0 0-30.2592 5.376c-3.18976 0.7168-6.33856 1.47968-9.35424 2.2528-2.80064 0.73216-5.59616 1.50016-8.37632 2.30912-2.56 0.76288-4.9408 1.50528-7.02976 2.20672-2.04288 0.67584-3.86048 1.31584-5.43744 1.90464-3.01568 1.11616-4.75136 1.88928-4.82304 1.92512l-12.2112 5.4784 13.32736 1.3568c0.0768 0.01024 1.96608 0.19968 5.16608 0.31232 1.6896 0.05632 3.61984 0.09728 5.76512 0.09728 2.24256 0 4.72576-0.04096 7.38304-0.13312a273.408 273.408 0 0 0 18.24256-1.24928 347.648 347.648 0 0 0 29.96224-4.32128 150.8864 150.8864 0 0 0-12.12416 15.0016 174.42816 174.42816 0 0 1-17.13664 5.61152c-23.1936 6.2208-45.35296 7.12704-57.8816 2.36544zM722.3296 350.72c-4.6592 17.48992-16.47104 46.1312-29.87008 53.3504-1.61792 0.87552-2.48832 0.91648-2.67776 0.84992-0.52736-0.19968-1.89952-1.44384-3.32288-4.72064a12.30848 12.30848 0 0 0-6.87616-6.5536c-3.05152-1.16224-6.46144-1.36704-9.4208 0-3.26144 1.50016-4.84864 3.54304-5.60128 0.97792-0.15872 0-0.84992-0.34816-1.47968-2.0736-5.21216-14.3104 4.97152-43.39712 13.11232-59.55584a166.4 166.4 0 0 1 8.93952-15.57504 151.41376 151.41376 0 0 0 17.66912-9.13408 368.68096 368.68096 0 0 0-10.49088 28.9536 334.56128 334.56128 0 0 0-2.71872 9.2416 266.7008 266.7008 0 0 0-2.19136 8.40704c-0.56832 2.39104-1.11104 4.79744-1.60768 7.20384-0.384 1.87392-0.74752 3.75808-1.05984 5.64736-0.54272 3.16928-0.74752 5.05344-0.74752 5.12512l-1.37216 13.34784 7.84896-10.88c0.04096-0.06656 1.15712-1.60256 2.85696-4.3264 0.88576-1.40288 1.86368-3.06688 2.95936-4.93056 1.12128-1.9456 2.31424-4.11136 3.57376-6.47168a277.44256 277.44256 0 0 0 8.05888-16.41984 353.54624 353.54624 0 0 0 11.21792-28.11392 152.1664 152.1664 0 0 0 6.93248 18.01216 172.75904 172.75904 0 0 1-3.73248 17.6384z m18.45248-142.6176c-1.17248 3.09248-2.30912 6.1952-3.40992 9.31328a150.89664 150.89664 0 0 0-7.1168-18.6112c0.9472-5.9392 2.19648-11.8272 3.7632-17.62816 4.6592-17.48992 16.51712-46.10048 29.92128-53.34016 1.92512-1.03936 2.70848-0.7168 2.70848-0.7168l1.41824-3.1488 0.13312 0.04608-1.18272 3.12832s1.64864 1.36192 3.09248 4.62848A11.776 11.776 0 0 0 776.76032 138.24a12.2368 12.2368 0 0 0 9.472-0.32768c3.24096-1.49504 5.08928-1.51552 5.64736-1.31072 0.01024 0 0.67584 0.33792 1.42336 2.4064 5.21728 14.3104-5.01248 43.55584-13.1328 59.71968a167.99232 167.99232 0 0 1-8.96 15.66208 152.79616 152.79616 0 0 0-17.14688 8.84224 348.35456 348.35456 0 0 0 10.30656-28.46208c0.96256-3.11808 1.87904-6.2208 2.72384-9.23136 0.87552-3.17952 1.62816-6.14912 2.176-8.40192a199.33184 199.33184 0 0 0 2.67264-12.8512c0.54272-3.16416 0.73728-5.05344 0.74752-5.13536l1.36192-13.33248-7.83872 10.86976c-0.04096 0.06656-1.16224 1.60256-2.85184 4.32128a207.01696 207.01696 0 0 0-6.54848 11.40736 291.8912 291.8912 0 0 0-3.94752 7.71072c-1.40288 2.88256-2.77504 5.7856-4.10112 8.71424a345.55904 345.55904 0 0 0-7.98208 19.26144z m89.15968 157.81888c-0.06144 1.8432-0.46592 2.6112-0.60928 2.73408-0.32256 0.29184-1.9968 0.95232-5.76 0.5376a12.30848 12.30848 0 0 0-9.10848 2.67776 12.28288 12.28288 0 0 0-4.44928 8.3712c-0.34816 3.83488-1.39776 5.43232-1.7408 5.67296-0.57344 0.43008-3.16416 0.37888-6.34368-0.83968-12.42112-4.72064-28.34944-20.18304-41.6-40.36096a168.00768 168.00768 0 0 1-9.06752-15.6416c0.7424-6.6816 1.03936-13.19936 0.92672-19.34848 1.92512 2.49344 3.88096 4.96128 5.87264 7.39328a337.9712 337.9712 0 0 0 13.63968 15.76448c2.18112 2.3552 4.38272 4.6848 6.6304 6.97856 2.03264 2.05824 4.10112 4.09088 6.19008 6.08768 1.78688 1.69472 3.58912 3.35872 5.43232 4.99712 1.42848 1.28 2.88256 2.52416 4.36224 3.74272 2.2784 1.90464 3.76832 2.9952 4.04992 3.20512l2.11456-2.90304 3.28704-1.46432c-0.04096-0.0768-0.80384-1.80224-2.31936-4.62848a146.05312 146.05312 0 0 0-2.7904-5.03296c-1.23392-2.13504-2.50368-4.2496-3.80416-6.34368a302.16192 302.16192 0 0 0-10.20928-15.1808 355.06176 355.06176 0 0 0-19.03104-24.12544c6.48192 1.46432 13.04064 2.50368 19.65568 3.10784 4.6848 3.77856 9.1648 7.79776 13.42464 12.05248 12.78464 12.7744 31.67744 37.31968 31.24736 52.54656z m40.70912-107.03872c-9.78944 11.66336-40.2176 17.44384-58.2912 18.47808a166.72768 166.72768 0 0 1-18.0224 0.0768 156.74368 156.74368 0 0 0-16.19968-10.4192 376.20736 376.20736 0 0 0 9.28256-1.38752 348.74368 348.74368 0 0 0 20.48-3.93216 281.43104 281.43104 0 0 0 17.72032-4.56704 203.648 203.648 0 0 0 12.47232-4.10112c1.60768-0.5888 3.21024-1.22368 4.79232-1.90464l-1.34144-3.08224 0.26624-3.77856c-1.72032-0.15872-3.44064-0.256-5.16608-0.30208-1.91488-0.06656-3.83488-0.1024-5.75488-0.1024-2.26816 0-4.75648 0.03584-7.3984 0.128-2.47296 0.09216-5.44256 0.21504-8.64256 0.43008-3.10784 0.20992-6.33344 0.48128-9.6 0.81408-6.4512 0.64-13.40928 1.54624-20.67968 2.7136-3.328 0.5376-6.59968 1.1008-9.76384 1.70496 4.31104-4.608 8.54016-9.82528 12.56448-15.46752a170.30144 170.30144 0 0 1 17.13152-5.60128c23.168-6.23616 45.33248-7.14752 57.86112-2.37568 3.94752 1.49504 5.2224 3.02592 5.36064 3.45088 0.08192 0.43008-0.1792 2.21184-2.42688 5.26848a12.25216 12.25216 0 0 0 2.78016 17.27488c3.09248 2.18624 3.90144 3.79904 3.94752 4.23424-0.00512 0.01536 0.03584 0.75776-1.37216 2.44736z" fill="#3070ff" p-id="13589"></path></svg>