<?xml version="1.0" standalone="no"?><!DOCTYPE svg PUBLIC "-//W3C//DTD SVG 1.1//EN" "http://www.w3.org/Graphics/SVG/1.1/DTD/svg11.dtd"><svg t="1748921531810" class="icon" viewBox="0 0 1024 1024" version="1.1" xmlns="http://www.w3.org/2000/svg" p-id="31495" xmlns:xlink="http://www.w3.org/1999/xlink" width="400" height="400"><path d="M541.596344 229.792344c50.537154 11.261502 99.119832-9.446632 108.426858-46.348991 9.353562-36.80929-24.012128-75.852265-74.549282-87.113768-50.583689-11.261502-99.119832 9.446632-108.426858 46.348992-9.353562 36.855825 24.012128 75.852265 74.549282 87.113767z m451.344247 90.510832a535.479766 535.479766 0 0 0-35.925122-79.761216 516.679573 516.679573 0 0 0-159.615503-176.042405 621.662831 621.662831 0 0 0-34.575603-20.801204c-119.129938-64.683834-180.184032-50.397548-179.160259-1.954476 0.744562 36.250868 33.784506 45.232149 63.055104 59.285758 99.585183 47.745046 153.333261 121.130949 126.017138 180.695919-25.128971 54.67878-118.338841 73.944325-214.852706 39.089511-98.840621-35.692446-228.440964-120.619063-245.845103-24.803226C297.2869 376.982967 421.116887 379.63547 550.158808 512.074456c55.283737 56.772861 69.523488 155.427342 37.228106 234.769742-69.570023 119.78143-268.833459 91.767281-359.204685-6.003032-103.773345-112.289274-90.278156-229.278596-84.880081-258.083843a442.456037 442.456037 0 0 1 53.05005-134.114251c17.869491-31.597355 27.083447-52.584699 26.757701-77.946347-0.465351-40.950916-29.084458-67.941293-68.82546-70.268049-47.326229-2.792108-82.367184 26.990377-102.842642 71.012612a534.316388 534.316388 0 0 0-39.554863 339.753c0.372281 2.187151 0.698027 4.374302 1.116843 6.514918 2.326757 11.540713 5.25847 22.802215 8.70207 33.784506l-0.09307-0.046535s4.793119 18.753658 16.240761 44.208376c3.722811 9.307026 7.445621 18.614053 11.540713 27.548798l-0.325746-0.325746 0.791097 1.396054c111.684317 241.796547 386.660414 361.298766 636.97289 268.042362 265.66907-98.980226 402.668499-399.783321 306.108099-671.967309z" fill="#3070ff" p-id="31496"></path></svg>