<?xml version="1.0" standalone="no"?><!DOCTYPE svg PUBLIC "-//W3C//DTD SVG 1.1//EN" "http://www.w3.org/Graphics/SVG/1.1/DTD/svg11.dtd"><svg t="1748921139205" class="icon" viewBox="0 0 1024 1024" version="1.1" xmlns="http://www.w3.org/2000/svg" p-id="10847" xmlns:xlink="http://www.w3.org/1999/xlink" width="400" height="400"><path d="M537.6 710.4C416 710.4 320 620.8 320 505.6s96-211.2 217.6-211.2c57.6 0 108.8 19.2 153.6 57.6 12.8 12.8 12.8 38.4 0 51.2-12.8 12.8-38.4 12.8-57.6 0-25.6-19.2-57.6-32-96-32-76.8 0-140.8 57.6-140.8 134.4s64 134.4 140.8 134.4c38.4 0 76.8-19.2 102.4-44.8 19.2-19.2 44.8-19.2 57.6-6.4 19.2 12.8 19.2 38.4 6.4 51.2-44.8 44.8-102.4 70.4-166.4 70.4z" p-id="10848" fill="#3070ff"></path><path d="M544 960c-249.6 0-448-198.4-448-448s204.8-448 448-448c115.2 0 224 44.8 307.2 121.6 12.8 6.4 12.8 25.6 12.8 38.4 0 12.8-12.8 25.6-25.6 25.6-12.8 6.4-25.6 0-38.4-6.4-70.4-64-160-102.4-256-102.4-204.8 0-371.2 166.4-371.2 371.2 0 204.8 166.4 371.2 371.2 371.2 102.4 0 198.4-38.4 268.8-115.2 12.8-12.8 38.4-12.8 51.2 0 12.8 12.8 12.8 38.4 0 51.2-76.8 89.6-198.4 140.8-320 140.8z" p-id="10849" fill="#3070ff"></path></svg>