<?xml version="1.0" standalone="no"?><!DOCTYPE svg PUBLIC "-//W3C//DTD SVG 1.1//EN" "http://www.w3.org/Graphics/SVG/1.1/DTD/svg11.dtd"><svg t="1720748291863" class="icon" viewBox="0 0 1024 1024" version="1.1" xmlns="http://www.w3.org/2000/svg" p-id="7818" xmlns:xlink="http://www.w3.org/1999/xlink" width="400" height="400"><path d="M461.122751 903.880225c-39.733956 17.173125-77.828576 33.80492-116.051109 50.030463-8.513908 3.610224-17.340947 6.749728-26.26213 8.471952-27.966958 5.3918-47.626717 29.980825-72.965825 41.59535-5.191232 2.376117-7.497765 13.122879-11.062963 19.86749-1.224898-0.332575-2.434445-0.275269-2.639107-0.76748-5.957689-14.368242-15.781428-18.993586-29.492708-21.390169-28.348652-4.963035-55.343469-16.118096-78.625732-36.520775-5.218862-4.577249-9.660011-10.328229-13.237489-17.587564 5.566786 1.75497 11.17655 3.357468 16.697287 5.290493 25.764803 9.028631 44.662199-11.637038 53.978379-30.726815 2.4017-4.915963 3.015683-12.615319 1.648546-18.10638-12.564154-50.477648-8.832156-99.437733 9.102309-147.256832 6.036483-16.098653 12.567223-31.950689 17.223267-49.354058-4.060479 3.181459-8.120958 6.363941-10.455119 8.18952-4.608971-3.237741-8.237615-8.033977-11.2973-7.594979-42.515303 6.100952-74.589812-16.58984-99.360985-52.16508-23.824615-34.215266-50.300616-61.758576-87.614453-73.41608-0.579191-0.179079-0.960885-1.201361-0.440022-0.511653 45.240367-32.098046 89.933265-65.798589 136.329968-96.023984 30.820959-20.076244 47.978734-21.285792 81.982176-17.779945-1.906419-3.095501-3.302209-5.745864-5.018294-8.090259-23.981181-32.766264-33.381271-71.15969-31.771611-113.267716 1.355881-35.547611 3.64604-71.057359 5.884011-106.551758 4.27435-67.759243-16.688077-123.1856-60.775178-167.537737-0.493234-0.493234-0.520863-1.604544-1.544169-5.062296 8.523117-0.699941 16.653285-3.007497 24.348548-1.7519 105.506962 17.231453 186.870038 76.149331 238.668775 185.483458 2.998287 6.327102 5.582135 12.913101 8.484232 19.301602 0.191358 0.418532 1.449002 0.192382 3.201925 0.36225 2.332115-61.374836 30.022781-100.199073 78.298274-120.070656 1.056052 0.785899 2.109034 1.569752 3.163039 2.355651-4.732791 17.458627-11.725042 34.609239-13.566994 52.464909-1.874697 18.205641 0.288572 37.274952 2.576685 55.651484 2.236947 17.984606 2.302439 38.642089 21.574365 44.482097 27.067472-117.453039 87.056752-205.255781 181.363627-259.4511 58.322313-33.517371 122.246205-42.097794 186.286754-46.437635 0.484024 1.542122 0.964978 3.085268 1.446955 4.624321-7.610328 6.853082-15.078417 13.929244-22.855544 20.516266-42.008766 35.583426-60.524468 85.536119-65.23577 143.443993-2.772136 34.103726-3.541663 68.425416-6.178723 102.549607-5.183046 67.086931-32.650631 121.310903-74.194816 167.062923-2.485611 2.736321-5.062296 5.357008-9.071609 9.589402 3.195785 0.313132 4.590552 0.759293 5.900384 0.533143 63.782675-11.044544 119.340015 10.775414 167.378102 58.33357 44.326555 43.881416 94.847182 74.233702 149.153018 97.327676 5.1503 2.188852 10.175757 4.780887 15.506159 9.948583-13.181207 2.619664-26.380834 5.106298-39.534412 7.879458-53.165874 11.207249-101.919251 36.343743-150.461827 62.570058-37.301558 20.151969-75.072813 39.850613-116.338658 46.581921-14.677281 2.39249-29.890774 0.38067-45.63434 0.38067 3.632737 15.424294 8.65717 29.881564 10.180873 44.815695 2.39556 23.494087 3.298116 47.309492 3.251044 70.985728-0.056282 29.025057 0.576121 57.880245 11.174504 84.667332 15.311731 38.720883 37.57171 50.260707 73.40073 39.708374 2.251274-0.665149 4.489244-1.388627 6.730285-2.086521 0.655939 1.131777 1.311879 2.26867 1.962701 3.400446-8.955976 7.001461-17.291828 15.521508-26.968212 20.75265-54.05922 29.234835-109.939925 32.034601-166.674067 12.065803-42.500976-14.962783-80.216973-39.101553-108.146069-80.386842C469.68987 918.099065 465.281467 910.535809 461.122751 903.880225z" p-id="7819" fill="#3170FF"></path></svg>